<?xml version="1.0" encoding="utf-8"?>
<!-- Generator: Adobe Illustrator 12.0.0, SVG Export Plug-In . SVG Version: 6.00 Build 51448)  -->
<!DOCTYPE svg PUBLIC "-//W3C//DTD SVG 1.1//EN" "http://www.w3.org/Graphics/SVG/1.1/DTD/svg11.dtd" [
	<!ENTITY ns_svg "http://www.w3.org/2000/svg">
	<!ENTITY ns_xlink "http://www.w3.org/1999/xlink">
]>
<svg  version="1.1" xmlns="&ns_svg;" xmlns:xlink="&ns_xlink;" width="71.363" height="87.32" viewBox="0 0 71.363 87.32"
	 overflow="visible" enable-background="new 0 0 71.363 87.32" xml:space="preserve">
<g id="Layer_1">
	<path d="M71.363,74.001c0,7.354-5.373,13.318-12,13.318H12c-6.627,0-12-5.965-12-13.318V21.433C0,14.078,5.373,8.115,12,8.115
		h47.363c6.627,0,12,5.963,12,13.318V74.001z"/>
	<path fill="#FFFFFF" stroke="#000000" d="M53.181,8.398c0,2.542-2.061,4.603-4.603,4.603H22.784c-2.542,0-4.603-2.061-4.603-4.603
		l0,0c0-2.542,2.061-4.602,4.603-4.602h25.794C51.121,3.796,53.181,5.857,53.181,8.398L53.181,8.398z"/>
	<path fill="#FFFFFF" d="M61.25,66.365c0,6.627-5.373,12-12,12H22.113c-6.627,0-12-5.373-12-12V31.728c0-6.627,5.373-12,12-12H49.25
		c6.627,0,12,5.373,12,12V66.365z"/>
	<path d="M52.955,33.035c0,1.789-1.45,3.239-3.239,3.239H21.647c-1.789,0-3.239-1.45-3.239-3.239l0,0
		c0-1.789,1.45-3.239,3.239-3.239h28.068C51.504,29.796,52.955,31.246,52.955,33.035L52.955,33.035z"/>
	<path d="M52.955,63.49c0,1.788-1.45,3.239-3.239,3.239H21.647c-1.789,0-3.239-1.451-3.239-3.239l0,0
		c0-1.788,1.45-3.239,3.239-3.239h28.068C51.504,60.25,52.955,61.702,52.955,63.49L52.955,63.49z"/>
	<path d="M52.386,48.262c0,1.789-1.425,3.238-3.187,3.238H21.594c-1.759,0-3.186-1.449-3.186-3.238l0,0
		c0-1.787,1.426-3.238,3.186-3.238H49.2C50.961,45.024,52.386,46.475,52.386,48.262L52.386,48.262z"/>
</g>
<g id="Layer_3">
	<path fill="#FFFFFF" stroke="#000000" d="M38.977,3.795c0,1.82-1.476,3.295-3.296,3.295l0,0c-1.82,0-3.295-1.476-3.295-3.295l0,0
		c0-1.82,1.476-3.295,3.295-3.295l0,0C37.501,0.5,38.977,1.976,38.977,3.795L38.977,3.795z"/>
</g>
<g id="Layer_2">
</g>
</svg>
