<?xml version="1.0" encoding="utf-8"?>
<!-- Generator: Adobe Illustrator 12.0.0, SVG Export Plug-In . SVG Version: 6.00 Build 51448)  -->
<!DOCTYPE svg PUBLIC "-//W3C//DTD SVG 1.1//EN" "http://www.w3.org/Graphics/SVG/1.1/DTD/svg11.dtd" [
	<!ENTITY ns_svg "http://www.w3.org/2000/svg">
	<!ENTITY ns_xlink "http://www.w3.org/1999/xlink">
]>
<svg  version="1.1" xmlns="&ns_svg;" xmlns:xlink="&ns_xlink;" width="71.86" height="87.57" viewBox="0 0 71.86 87.57"
	 overflow="visible" enable-background="new 0 0 71.86 87.57" xml:space="preserve">
<g id="Layer_1">
</g>
<g id="Layer_3">
	<g id="XMLID_4_">
		<g>
			<path fill="#FFFFFF" d="M71.61,21.43V74c0,7.35-5.37,13.319-12,13.319H12.25c-6.63,0-12-5.97-12-13.319V21.43
				c0-7.35,5.37-13.32,12-13.32h6.19C18.43,8.2,18.43,8.3,18.43,8.4c0,2.54,2.06,4.6,4.6,4.6h25.8c2.539,0,4.6-2.06,4.6-4.6
				c0-0.1,0-0.2-0.01-0.29h6.189C66.24,8.11,71.61,14.08,71.61,21.43z M61.5,66.36V31.73c0-6.63-5.381-12-12-12H22.36
				c-6.63,0-12,5.37-12,12v34.63c0,6.63,5.37,12,12,12H49.5C56.12,78.36,61.5,72.99,61.5,66.36z"/>
			<path fill="#FFFFFF" d="M49.96,29.79c1.79,0,3.239,1.45,3.239,3.24s-1.449,3.24-3.239,3.24H21.9c-1.79,0-3.24-1.45-3.24-3.24
				c0-0.89,0.36-1.71,0.95-2.29c0.59-0.59,1.39-0.95,2.29-0.95H49.96z"/>
			<path fill="#FFFFFF" d="M49.96,60.25c1.79,0,3.239,1.449,3.239,3.239s-1.449,3.24-3.239,3.24H21.9c-1.79,0-3.24-1.45-3.24-3.24
				c0-0.89,0.36-1.71,0.95-2.29C20.2,60.61,21,60.25,21.9,60.25H49.96z"/>
			<path fill="#FFFFFF" d="M49.45,45.02c1.761,0,3.181,1.45,3.181,3.24s-1.42,3.24-3.181,3.24H21.84c-1.76,0-3.18-1.45-3.18-3.24
				c0-0.9,0.36-1.7,0.93-2.29c0.57-0.59,1.37-0.95,2.25-0.95H49.45z"/>
		</g>
		<g>
			<path fill="none" stroke="#FFFFFF" d="M39.22,3.79h9.61c2.439,0,4.439,1.9,4.59,4.32c0.01,0.09,0.01,0.19,0.01,0.29
				c0,2.54-2.061,4.6-4.6,4.6h-25.8c-2.54,0-4.6-2.06-4.6-4.6c0-0.1,0-0.2,0.01-0.29c0.07-1.17,0.56-2.2,1.34-2.97
				c0.83-0.84,1.98-1.35,3.25-1.35h9.6"/>
			<path fill="none" stroke="#FFFFFF" d="M39.22,3.79c0,1.82-1.47,3.3-3.29,3.3c-0.91,0-1.73-0.37-2.33-0.97s-0.97-1.42-0.97-2.33
				c0-0.91,0.37-1.73,0.97-2.33c0.6-0.59,1.42-0.96,2.33-0.96s1.729,0.37,2.33,0.96C38.85,2.06,39.22,2.88,39.22,3.79z"/>
		</g>
	</g>
</g>
<g id="Layer_2">
</g>
</svg>
