<?xml version="1.0" encoding="utf-8"?>
<!-- Generator: Adobe Illustrator 22.0.1, SVG Export Plug-In . SVG Version: 6.00 Build 0)  -->
<svg version="1.1" id="Layer_1" xmlns="http://www.w3.org/2000/svg" xmlns:xlink="http://www.w3.org/1999/xlink" x="0px" y="0px"
	 viewBox="0 0 99.4 99.6" style="enable-background:new 0 0 99.4 99.6;" xml:space="preserve">
<style type="text/css">
	.st0{fill:#333333;}
	.st1{fill:none;}
	.st2{fill:#EFEFEF;}
</style>
<rect class="st0" width="99.4" height="99.6"/>
<path class="st1" d="M99.6,84.7c0,8.5-7.5,15.3-16.9,15.3H16.6c-9.3,0-16.9-6.8-16.9-15.3V24.1c0-8.5,7.5-15.3,16.9-15.3h66.3
	c9.3,0,16.9,6.8,16.9,15.3v60.5H99.6z"/>
<g>
	<path class="st2" d="M76.9,10.1c0,3.3-3.2,5.9-7.1,5.9H29.6c-4,0-7.1-2.6-7.1-5.9l0,0c0-3.3,3.2-5.9,7.1-5.9h40.1
		C73.7,4.2,76.9,6.8,76.9,10.1L76.9,10.1z"/>
	<path class="st2" d="M70.7,24.6H28.7C18.3,24.6,10,31.4,10,40v44.3c0,8.5,8.4,15.3,18.7,15.3h42.2c10.4,0,18.7-6.8,18.7-15.3V40
		C89.5,31.4,81.1,24.6,70.7,24.6z M71.5,84.7H27.9c-2.8,0-5.1-1.9-5.1-4.2s2.3-4.2,5.1-4.2h43.6c2.8,0,5.1,1.9,5.1,4.2
		C76.5,82.9,74.3,84.7,71.5,84.7z M22.8,61c0-2.3,2.2-4.2,4.9-4.2h42.8c2.8,0,4.9,1.9,4.9,4.2s-2.2,4.2-4.9,4.2H27.8
		C25.1,65.2,22.8,63.3,22.8,61z M71.5,45.7H27.9c-2.8,0-5.1-1.9-5.1-4.2s2.3-4.2,5.1-4.2h43.6c2.8,0,5.1,1.9,5.1,4.2
		S74.3,45.7,71.5,45.7z"/>
	<path class="st2" d="M54.8,4.2c0,2.3-2.3,4.2-5.1,4.2l0,0c-2.8,0-5.1-1.9-5.1-4.2l0,0c0-2.3,2.3-4.2,5.1-4.2l0,0
		C52.5,0,54.8,1.9,54.8,4.2L54.8,4.2z"/>
</g>
</svg>
