<?xml version="1.0" encoding="utf-8"?>
<!-- Generator: Adobe Illustrator 22.0.1, SVG Export Plug-In . SVG Version: 6.00 Build 0)  -->
<svg version="1.1" id="Layer_1" xmlns="http://www.w3.org/2000/svg" xmlns:xlink="http://www.w3.org/1999/xlink" x="0px" y="0px"
	 viewBox="0 0 100 99" style="enable-background:new 0 0 100 99;" xml:space="preserve">
<style type="text/css">
	.st0{fill:#FFFFFF;}
</style>
<title>facebook</title>
<desc>Created with Sketch.</desc>
<g>
	<path class="st0" d="M5.5,0H0v5.5C0,2.4,2.5,0,5.5,0z"/>
	<path class="st0" d="M0,93.5V99h5.5C2.5,99,0,96.6,0,93.5z"/>
	<path class="st0" d="M94.5,0c3,0,5.5,2.4,5.5,5.5V0H94.5z"/>
	<path class="st0" d="M82.5,61.7l1.9-14.9H69.6v-9.5c0-4.3,1.2-7.3,7.5-7.3l8,0V16.6c-1.4-0.2-6.1-0.6-11.6-0.6
		C61.9,16,54,23,54,35.7v11H41v14.9h13V99h15.6V61.7H82.5z"/>
	<path class="st0" d="M94.5,99h5.5v-5.5C100,96.6,97.5,99,94.5,99z"/>
</g>
</svg>
