<?xml version="1.0" encoding="utf-8"?>
<!-- Generator: Adobe Illustrator 22.0.1, SVG Export Plug-In . SVG Version: 6.00 Build 0)  -->
<svg version="1.1" id="Layer_1" xmlns="http://www.w3.org/2000/svg" xmlns:xlink="http://www.w3.org/1999/xlink" x="0px" y="0px"
	 viewBox="0 0 100 100" style="enable-background:new 0 0 100 100;" xml:space="preserve">
<style type="text/css">
	.st0{fill:#EFEFEF;}
	.st1{fill:none;}
	.st2{fill:#333333;}
</style>
<rect class="st0" width="100" height="100"/>
<path class="st1" d="M5.5,0.5H0V6C0,2.9,2.5,0.5,5.5,0.5z"/>
<path class="st1" d="M0,94v5.5h5.5C2.5,99.5,0,97.1,0,94z"/>
<path class="st1" d="M94.5,0.5c3,0,5.5,2.4,5.5,5.5V0.5H94.5z"/>
<path class="st2" d="M82.5,62.2l1.9-14.9H69.6v-9.5c0-4.3,1.2-7.3,7.5-7.3h8V17.1c-1.4-0.2-6.1-0.6-11.6-0.6
	c-11.6,0-19.5,7-19.5,19.7v11H41v14.9h13v37.4h15.6V62.2H82.5z"/>
<path class="st1" d="M94.5,99.5h5.5V94C100,97.1,97.5,99.5,94.5,99.5z"/>
</svg>
