<?xml version="1.0" encoding="UTF-8"?>
<svg width="400px" height="238px" viewBox="0 0 400 238" version="1.1" xmlns="http://www.w3.org/2000/svg" xmlns:xlink="http://www.w3.org/1999/xlink">
    <!-- Generator: Sketch 47.1 (45422) - http://www.bohemiancoding.com/sketch -->
    <title>Hey I'm Lofi</title>
    <desc>Created with Sketch.</desc>
    <defs>
        <path d="M125.790165,177.075994 L400,191 L360.207589,0 L0,48.8507404 L28.9992059,137 L0,137 L78.4615385,238 L125.790165,177.075994 Z" id="path-1"></path>
    </defs>
    <g id="Page-1" stroke="none" stroke-width="1" fill="none" fill-rule="evenodd">
        <g id="Landing-HD" transform="translate(-60.000000, -155.000000)">
            <g id="Hey-I'm-Lofi" transform="translate(60.000000, 155.000000)">
                <g id="Combined-Shape">
                    <use fill="#090F1B" fill-rule="evenodd" xlink:href="#path-1"></use>
                    <path stroke="#EFEFEF" stroke-width="6" d="M396.270311,187.806746 L357.84078,3.34844542 L3.97671733,51.3388876 L33.1443118,140 L6.12941165,140 L78.4615385,233.109885 L124.380447,174.000545 L396.270311,187.806746 Z"></path>
                </g>
                <path d="M174.765625,79.703125 C177.838557,78.8697875 179.92187,78.8437461 181.015625,79.625 C181.484377,79.885418 181.744791,81.1614469 181.796875,83.453125 C181.901042,86.5781406 181.953125,92.9843266 181.953125,102.671875 C181.953125,114.599018 181.822918,121.421866 181.5625,123.140625 C181.249998,125.328136 180.54688,126.578123 179.453125,126.890625 C178.828122,126.994792 177.161472,127.020834 174.453125,126.96875 C171.067691,126.96875 169.270834,126.78646 169.0625,126.421875 C168.749998,126.05729 168.645833,122.802114 168.75,116.65625 C168.802084,111.031222 168.645835,107.723963 168.28125,106.734375 C167.864581,105.692703 166.718759,105.119792 164.84375,105.015625 L159.375,105.015625 C159.010415,105.015625 158.515628,105.093749 157.890625,105.25 C157.734374,105.302084 157.565105,105.341146 157.382812,105.367188 C157.20052,105.393229 157.057292,105.419271 156.953125,105.445312 C156.848958,105.471354 156.770834,105.484375 156.71875,105.484375 C156.614583,105.536459 156.38021,105.796873 156.015625,106.265625 C155.859374,106.473959 155.703126,106.812498 155.546875,107.28125 C155.494791,107.489584 155.416667,108.062495 155.3125,109 C155.260416,109.57292 155.234375,110.32812 155.234375,111.265625 L155.234375,115.40625 C155.234375,120.822944 155.026044,124.026037 154.609375,125.015625 C154.192706,126.057297 153.098967,126.656249 151.328125,126.8125 C150.546871,126.8125 149.687505,126.838541 148.75,126.890625 C145.312483,126.942709 143.41146,126.838543 143.046875,126.578125 C142.734373,126.161456 142.604166,119.520898 142.65625,106.65625 C142.65625,98.0103734 142.604167,92.3854297 142.5,89.78125 C142.447916,87.9583242 142.13542,86.5000055 141.5625,85.40625 C140.729163,84.0520766 140.598955,83.0885445 141.171875,82.515625 C141.744795,81.9427055 143.489569,81.2916703 146.40625,80.5625 C147.343755,80.3541656 148.151038,80.1458344 148.828125,79.9375 C149.19271,79.8333328 149.817704,79.7291672 150.703125,79.625 C151.536462,79.5208328 152.057291,79.4427086 152.265625,79.390625 C152.526043,79.2864578 152.890623,79.364582 153.359375,79.625 C153.515626,79.7291672 153.697916,79.8072914 153.90625,79.859375 C154.114584,79.9114586 154.21875,79.9635414 154.21875,80.015625 C154.322917,80.1197922 154.479166,80.4583305 154.6875,81.03125 C154.947918,81.7083367 155.078125,82.1249992 155.078125,82.28125 C155.078125,82.9062531 155.104166,83.5572883 155.15625,84.234375 C155.208334,84.9114617 155.234375,85.6927039 155.234375,86.578125 L155.234375,98.21875 L156.5625,98.6875 C157.395837,99.1041687 159.374984,99.3125 162.5,99.3125 C165.729183,99.3125 167.578123,98.9479203 168.046875,98.21875 C168.567711,97.4374961 168.750001,95.0677281 168.59375,91.109375 C168.489583,89.182282 168.333334,86.6041828 168.125,83.375 C168.020833,82.5416625 168.33333,81.9166687 169.0625,81.5 C169.583336,81.1874984 171.484359,80.5885461 174.765625,79.703125 Z M194.203125,95.5625 C195.244797,95.1979148 197.354151,95.0677078 200.53125,95.171875 C203.552098,95.2239586 205.531245,95.4583313 206.46875,95.875 C208.656261,96.7604211 210.505201,98.3229055 212.015625,100.5625 C213.421882,102.645844 214.255207,105.145819 214.515625,108.0625 C214.619792,110.197927 214.463544,111.499998 214.046875,111.96875 C213.421872,112.593753 211.182311,112.90625 207.328125,112.90625 L204.90625,112.90625 C199.333305,112.90625 196.26042,113.166664 195.6875,113.6875 C195.218748,114.156252 195.374996,115.04166 196.15625,116.34375 C198.395845,120.614605 201.677062,121.317723 206,118.453125 C208.500012,116.734366 210.036455,115.770834 210.609375,115.5625 C210.97396,115.458333 211.598954,115.614581 212.484375,116.03125 C213.942716,116.864587 214.359378,117.984368 213.734375,119.390625 C213.161455,120.692715 211.546888,122.151034 208.890625,123.765625 C207.79687,124.390628 206.807296,124.781249 205.921875,124.9375 C205.088538,125.093751 203.187515,125.171875 200.21875,125.171875 C196.104146,125.171875 193.552088,125.015627 192.5625,124.703125 C191.416661,124.442707 190.010425,123.453134 188.34375,121.734375 C186.781242,120.119784 185.791669,118.635423 185.375,117.28125 C184.437495,113.999984 184.15104,110.927098 184.515625,108.0625 C184.88021,105.145819 185.869784,102.619802 187.484375,100.484375 C189.411468,97.9843625 191.651029,96.3437539 194.203125,95.5625 Z M201.859375,101.578125 C200.661452,100.796871 199.359382,100.666664 197.953125,101.1875 C197.432289,101.395834 196.859378,102.307284 196.234375,103.921875 C195.609372,105.536466 195.453123,106.473957 195.765625,106.734375 C196.078127,107.046877 197.406238,107.203125 199.75,107.203125 C202.093762,107.203125 203.447915,107.020835 203.8125,106.65625 C204.177085,106.291665 204.125002,105.484381 203.65625,104.234375 C203.187498,102.932285 202.588545,102.046877 201.859375,101.578125 Z M219.421875,96.734375 C219.630209,96.3697898 220.697907,96.1875 222.625,96.1875 C224.552093,96.1875 225.828122,96.3437484 226.453125,96.65625 C227.182295,97.0729187 228.171869,99.078107 229.421875,102.671875 C229.838544,103.921881 230.359372,105.276034 230.984375,106.734375 C231.34896,107.619796 231.765623,108.296873 232.234375,108.765625 C232.651044,109.182294 233.041665,109.182294 233.40625,108.765625 C233.770835,108.296873 234.161456,107.593755 234.578125,106.65625 C234.838543,106.031247 235.33333,104.625011 236.0625,102.4375 C236.479169,100.822909 237.05208,99.4427141 237.78125,98.296875 C238.51042,97.2031195 239.161455,96.5781258 239.734375,96.421875 C240.463545,96.2135406 242.234361,96.1614578 245.046875,96.265625 C247.703138,96.3177086 249.239581,96.6302055 249.65625,97.203125 C250.020835,97.7760445 249.708338,99.1822805 248.71875,101.421875 C248.093747,102.828132 247.273443,104.65103 246.257812,106.890625 C245.242182,109.13022 244.552085,110.666663 244.1875,111.5 C243.302079,113.583344 242.182298,115.953112 240.828125,118.609375 C239.73437,120.796886 238.875003,122.437495 238.25,123.53125 C237.624997,124.625005 236.921879,125.64062 236.140625,126.578125 C235.255204,127.619797 234.578127,128.296873 234.109375,128.609375 C232.963536,129.338545 232.260418,129.755208 232,129.859375 C230.958328,130.432295 230.229169,130.770833 229.8125,130.875 C229.343748,130.979167 228.692712,131.083333 227.859375,131.1875 C227.390623,131.239584 226.505215,131.265625 225.203125,131.265625 C222.703113,131.161458 220.750007,130.82292 219.34375,130.25 C217.833326,129.624997 217.078125,128.817713 217.078125,127.828125 C217.078125,126.005199 218.406237,125.249998 221.0625,125.5625 C222.729175,125.718751 224.031245,125.562502 224.96875,125.09375 C225.802087,124.677081 226.557288,123.739591 227.234375,122.28125 C227.651044,121.135411 227.781251,120.145837 227.625,119.3125 C227.520833,118.58333 226.713549,116.526059 225.203125,113.140625 C223.692701,109.546857 222.546879,106.786468 221.765625,104.859375 C220.359368,101.369774 219.578126,99.2864617 219.421875,98.609375 C219.213541,97.6718703 219.213541,97.0468766 219.421875,96.734375 Z" id="Hey-I’m-Lofi" fill="#EFEFEF"></path>
            </g>
        </g>
    </g>
</svg>