<?xml version="1.0" encoding="UTF-8"?>
<svg width="206px" height="206px" viewBox="0 0 206 206" version="1.1" xmlns="http://www.w3.org/2000/svg" xmlns:xlink="http://www.w3.org/1999/xlink">
    <!-- Generator: Sketch 47.1 (45422) - http://www.bohemiancoding.com/sketch -->
    <title>Logo</title>
    <desc>Created with Sketch.</desc>
    <defs></defs>
    <g id="Page-1" stroke="none" stroke-width="1" fill="none" fill-rule="evenodd">
        <g id="Landing-HD" transform="translate(-617.000000, -409.000000)">
            <g id="Logo" transform="translate(620.000000, 412.000000)">
                <circle id="Oval-2" stroke="#000000" stroke-width="5" cx="100" cy="100" r="100"></circle>
                <polygon id="Polygon" stroke="#000000" stroke-width="5" points="100 0 186.60254 50 186.60254 150 100 200 13.3974596 150 13.3974596 50"></polygon>
                <path d="M22.1953125,76.1738281 C24.4739697,75.5813772 25.9550747,75.2851562 26.6386719,75.2851562 C27.5501348,75.2851562 28.2792941,75.4902323 28.8261719,75.9003906 C29.2819033,76.2649758 29.5325519,77.1992112 29.578125,78.703125 C29.6692713,80.2526119 29.73763,84.8326442 29.7832031,92.4433594 C29.8743494,102.970756 29.9654943,108.462237 30.0566406,108.917969 C30.2389332,109.3737 32.1301903,109.601562 35.7304688,109.601562 C39.3307472,109.601562 42.0195224,109.328128 43.796875,108.78125 C45.0273499,108.462238 45.8704404,108.302734 46.3261719,108.302734 C46.690757,108.302734 47.1692679,108.530597 47.7617188,108.986328 C49.0833399,109.943364 49.4023472,110.900386 48.71875,111.857422 C48.1262991,112.723312 46.5768354,113.475257 44.0703125,114.113281 C42.5663987,114.477866 41.0852938,114.728515 39.6269531,114.865234 C38.5787708,114.956381 35.9127818,115.001953 31.6289062,115.001953 C27.6640427,115.001953 24.9980537,114.956381 23.6308594,114.865234 C22.6738233,114.819661 21.8307328,114.569013 21.1015625,114.113281 C20.5546848,113.703123 20.1445326,113.292971 19.8710938,112.882812 C19.5976549,112.472654 19.3697926,111.994143 19.1875,111.447266 C18.9140611,110.672522 18.7545575,109.624356 18.7089844,108.302734 C18.6634112,107.80143 18.6292319,107.026698 18.6064453,105.978516 C18.5836587,104.930333 18.5722656,104.132815 18.5722656,103.585938 C18.5266925,102.446609 18.5039062,99.8489786 18.5039062,95.7929688 C18.5039062,86.404901 18.3216164,81.1184955 17.9570312,79.9335938 C17.5924461,78.8398383 17.6608048,78.0878927 18.1621094,77.6777344 C18.663414,77.2220029 20.0078016,76.7207059 22.1953125,76.1738281 Z M58.6171875,90.1875 C59.6197967,89.6861954 61.5794125,89.4355469 64.4960938,89.4355469 C67.412775,89.4355469 69.3723908,89.6178367 70.375,89.9824219 C71.651048,90.5292996 72.8815045,91.3723901 74.0664062,92.5117188 C75.2968812,93.6966205 76.1855441,94.8587183 76.7324219,95.9980469 C77.5071653,97.5931069 77.8945312,99.6438677 77.8945312,102.150391 C77.8945312,104.429048 77.4615929,106.502595 76.5957031,108.371094 C74.4993385,113.110701 70.3750308,115.480469 64.2226562,115.480469 C61.3971213,115.480469 58.9134222,114.796882 56.7714844,113.429688 C54.6295466,112.062493 53.1256554,110.216808 52.2597656,107.892578 C51.5305953,105.932933 51.1888019,103.973317 51.234375,102.013672 C51.2799481,99.9173072 51.6673141,98.0944088 52.3964844,96.5449219 C53.0345084,95.1321544 53.9231714,93.8561255 55.0625,92.7167969 C56.1562555,91.6230414 57.3411395,90.7799509 58.6171875,90.1875 Z M66.7519531,95.0410156 C65.9316365,94.1751259 65.2936221,93.696615 64.8378906,93.6054688 C64.4277323,93.5143225 63.8125041,93.8105435 62.9921875,94.4941406 C61.260408,95.8157618 60.3945312,98.4361783 60.3945312,102.355469 C60.3945312,104.041675 60.5996073,105.591139 61.0097656,107.003906 C61.3743508,108.188808 61.989579,109.191402 62.8554688,110.011719 C64.496102,111.470059 66.0455656,110.945976 67.5039062,108.439453 C68.6432349,106.479808 69.1445319,104.155612 69.0078125,101.466797 C68.8710931,98.7324082 68.1191475,96.5905025 66.7519531,95.0410156 Z M84.375,76.7207031 C88.3398636,75.6269477 90.8919214,75.5130165 92.03125,76.3789062 C92.2591157,76.5156257 92.5553367,76.6295568 92.9199219,76.7207031 C93.2389339,76.7662763 93.8085896,76.834635 94.6289062,76.9257812 C95.6315154,77.0169275 96.5885371,77.0625 97.5,77.0625 L102.080078,77.0625 C108.141306,77.0625 111.468096,77.1992174 112.060547,77.4726562 C112.698571,77.8372414 112.994792,78.4296834 112.949219,79.25 C112.903646,79.9791703 112.51628,80.7083297 111.787109,81.4375 C111.240232,81.9843777 110.533858,82.303385 109.667969,82.3945312 C108.574213,82.4856775 106.022155,82.53125 102.011719,82.53125 C98.5025866,82.53125 96.06446,82.5768225 94.6972656,82.6679688 C93.7402296,82.7135419 93.1477876,82.918618 92.9199219,83.2832031 C92.6009099,83.875654 92.41862,85.5846213 92.3730469,88.4101562 C92.3274737,90.0052163 92.3730462,91.2356728 92.5097656,92.1015625 C92.6009119,92.5572939 92.9199191,92.8990874 93.4667969,93.1269531 C94.2871135,93.400392 97.1809647,93.5143231 102.148438,93.46875 C106.113301,93.46875 108.619786,93.5826812 109.667969,93.8105469 C110.625005,94.0384126 111.103516,94.6308546 111.103516,95.5878906 C111.103516,96.3170609 110.784508,97.0690065 110.146484,97.84375 L109.189453,99.0742188 L101.259766,99.0742188 C97.2949021,99.0742188 95.016279,99.097005 94.4238281,99.1425781 C93.6035115,99.1881513 93.0794282,99.4387998 92.8515625,99.8945312 C92.4869773,100.486982 92.3046875,103.244116 92.3046875,108.166016 L92.3046875,111.515625 C92.3046875,112.335942 92.2819013,113.019529 92.2363281,113.566406 C92.190755,114.386723 92.1223963,114.933592 92.03125,115.207031 C91.9401037,115.526043 91.7806001,115.867837 91.5527344,116.232422 C91.3248687,116.551434 91.0970063,116.779296 90.8691406,116.916016 C90.8235675,116.916016 90.7552088,116.927409 90.6640625,116.950195 C90.5729162,116.972982 90.4475919,116.995768 90.2880859,117.018555 C90.1285799,117.041341 89.9804694,117.075521 89.84375,117.121094 C89.2968723,117.257813 88.8411477,117.326172 88.4765625,117.326172 L86.1523438,117.326172 C83.3268088,117.326172 81.7545589,117.121096 81.4355469,116.710938 C81.1165349,116.391925 80.9570312,110.535864 80.9570312,99.1425781 C81.0026044,87.9771577 80.7975283,81.9615929 80.3417969,81.0957031 C79.8860654,80.0019477 79.9316379,79.1360709 80.4785156,78.4980469 C81.0709665,77.8600229 82.3697816,77.2675809 84.375,76.7207031 Z M120.181641,80.2070312 C121.685554,80.0703118 122.688149,79.9563807 123.189453,79.8652344 C123.417319,79.8652344 123.986975,80.2526003 124.898438,81.0273438 C125.582035,81.5742215 125.992187,82.0299461 126.128906,82.3945312 C126.265626,82.8046896 126.333984,83.6249938 126.333984,84.8554688 C126.333984,86.0859437 126.265626,86.9062479 126.128906,87.3164062 C125.992187,87.6809914 125.582035,88.136716 124.898438,88.6835938 C124.533852,89.0481789 124.169273,89.2988274 123.804688,89.4355469 C123.348956,89.6178395 122.984376,89.7317706 122.710938,89.7773438 C122.16406,89.86849 121.61719,89.9140625 121.070312,89.9140625 C120.295569,89.9140625 119.543623,89.8229176 118.814453,89.640625 C118.358722,89.5494787 117.834638,89.2304715 117.242188,88.6835938 C116.877602,88.455728 116.558595,88.1367208 116.285156,87.7265625 C116.102864,87.4531236 115.966146,87.1341164 115.875,86.7695312 C115.783854,86.3137998 115.738281,85.744144 115.738281,85.0605469 C115.738281,83.4199137 116.057288,82.2350297 116.695312,81.5058594 C117.287763,80.8678354 118.449861,80.434897 120.181641,80.2070312 Z M116.216797,93.5371094 C116.809248,93.4459631 117.424476,93.2181008 118.0625,92.8535156 C118.700524,92.4889305 119.999339,92.2610682 121.958984,92.1699219 C123.78191,92.1243487 124.898435,92.3066386 125.308594,92.7167969 C125.627606,93.0358089 125.718751,96.6132471 125.582031,103.449219 C125.445312,110.330764 125.21745,114.090492 124.898438,114.728516 C124.670572,115.093101 124.305992,115.298177 123.804688,115.34375 C123.440102,115.389323 122.323577,115.412109 120.455078,115.412109 L116.490234,115.275391 L116.353516,105.978516 C116.262369,102.104798 116.194011,99.5299543 116.148438,98.2539062 C116.102864,97.0234313 115.875002,96.1347684 115.464844,95.5878906 C115.100259,94.9498666 114.986327,94.4485695 115.123047,94.0839844 C115.259766,93.7193992 115.624346,93.5371094 116.216797,93.5371094 Z M144.162109,77.0625 C144.800133,76.7890611 146.554673,76.6523438 149.425781,76.6523438 C152.205743,76.6523438 153.777993,76.8118474 154.142578,77.1308594 C154.59831,77.4042982 155.190752,78.4524648 155.919922,80.2753906 C156.831385,82.6451941 157.423827,84.1035129 157.697266,84.6503906 C158.380863,86.0631581 158.836587,87.1113247 159.064453,87.7949219 C160.112635,90.8483226 162.938128,98.0031989 167.541016,109.259766 C168.680344,111.903008 169.181641,113.817051 169.044922,115.001953 L168.908203,116.642578 L159.474609,116.642578 L158.3125,114.796875 C157.674476,113.611973 157.173179,112.267586 156.808594,110.763672 C156.444009,109.442051 155.988284,108.576174 155.441406,108.166016 C154.848955,107.710284 153.709644,107.391277 152.023437,107.208984 C150.565097,107.026692 148.104184,107.049478 144.640625,107.277344 C144.002601,107.277344 143.501304,107.436847 143.136719,107.755859 C142.635414,108.166018 142.202476,108.735673 141.837891,109.464844 C141.427732,110.330733 141.01758,111.3789 140.607422,112.609375 C140.561849,112.791668 140.49349,113.042316 140.402344,113.361328 C140.311197,113.68034 140.242839,113.908202 140.197266,114.044922 C140.014973,114.500653 139.855469,114.842447 139.71875,115.070312 C139.627604,115.161459 139.536459,115.298176 139.445312,115.480469 C139.354166,115.662761 139.285808,115.776692 139.240234,115.822266 C139.149088,115.958985 138.944012,116.118489 138.625,116.300781 C138.351561,116.437501 138.078126,116.551432 137.804687,116.642578 L136.710937,116.779297 C136.346352,116.82487 135.890628,116.847656 135.34375,116.847656 C134.660153,116.847656 134.044925,116.82487 133.498047,116.779297 L128.644531,116.642578 L128.507812,114.865234 C128.416666,113.680333 128.553384,112.882815 128.917969,112.472656 C129.282554,112.016925 129.806637,110.991544 130.490234,109.396484 C132.085294,105.56834 134.022124,100.806018 136.300781,95.109375 C136.57422,94.4257778 136.972979,93.4117906 137.49707,92.0673828 C138.021161,90.722975 138.397134,89.7773465 138.625,89.2304688 C139.627609,86.7239458 140.333982,84.9921923 140.744141,84.0351562 L141.769531,81.6425781 C142.225263,80.5032495 142.589842,79.4778691 142.863281,78.5664062 C143.091147,77.7916628 143.524085,77.2903657 144.162109,77.0625 Z M151.203125,94.6308594 C150.473955,92.5344947 149.949871,91.4407557 149.630859,91.3496094 C149.311847,91.3040362 148.833337,91.7141884 148.195312,92.5800781 C147.511715,93.5826873 147.010418,94.5852814 146.691406,95.5878906 C146.326821,96.8183655 146.007814,97.5930974 145.734375,97.9121094 C145.460936,98.2311214 145.369791,98.8691358 145.460937,99.8261719 C145.506511,100.418623 145.6888,100.783202 146.007812,100.919922 C146.190105,101.011068 147.192699,101.056641 149.015625,101.056641 L152.433594,101.056641 L152.365234,99.484375 C152.365234,98.3906195 151.977868,96.7727972 151.203125,94.6308594 Z M176.414062,80.2070312 C177.917976,80.0703118 178.92057,79.9563807 179.421875,79.8652344 C179.649741,79.8652344 180.219396,80.2526003 181.130859,81.0273438 C181.814457,81.5742215 182.224609,82.0299461 182.361328,82.3945312 C182.498048,82.8046896 182.566406,83.6249938 182.566406,84.8554688 C182.566406,86.0859437 182.498048,86.9062479 182.361328,87.3164062 C182.224609,87.6809914 181.814457,88.136716 181.130859,88.6835938 C180.766274,89.0481789 180.401695,89.2988274 180.037109,89.4355469 C179.581378,89.6178395 179.216798,89.7317706 178.943359,89.7773438 C178.396482,89.86849 177.849612,89.9140625 177.302734,89.9140625 C176.527991,89.9140625 175.776045,89.8229176 175.046875,89.640625 C174.591144,89.5494787 174.06706,89.2304715 173.474609,88.6835938 C173.110024,88.455728 172.791017,88.1367208 172.517578,87.7265625 C172.335286,87.4531236 172.198568,87.1341164 172.107422,86.7695312 C172.016276,86.3137998 171.970703,85.744144 171.970703,85.0605469 C171.970703,83.4199137 172.28971,82.2350297 172.927734,81.5058594 C173.520185,80.8678354 174.682283,80.434897 176.414062,80.2070312 Z M172.449219,93.5371094 C173.04167,93.4459631 173.656898,93.2181008 174.294922,92.8535156 C174.932946,92.4889305 176.231761,92.2610682 178.191406,92.1699219 C180.014332,92.1243487 181.130857,92.3066386 181.541016,92.7167969 C181.860028,93.0358089 181.951173,96.6132471 181.814453,103.449219 C181.677734,110.330764 181.449871,114.090492 181.130859,114.728516 C180.902994,115.093101 180.538414,115.298177 180.037109,115.34375 C179.672524,115.389323 178.555999,115.412109 176.6875,115.412109 L172.722656,115.275391 L172.585938,105.978516 C172.494791,102.104798 172.426433,99.5299543 172.380859,98.2539062 C172.335286,97.0234313 172.107424,96.1347684 171.697266,95.5878906 C171.33268,94.9498666 171.218749,94.4485695 171.355469,94.0839844 C171.492188,93.7193992 171.856768,93.5371094 172.449219,93.5371094 Z" id="LoFiAi" fill="#EFEFEF"></path>
            </g>
        </g>
    </g>
</svg>