<?xml version="1.0" encoding="utf-8"?>
<!-- Generator: Adobe Illustrator 22.0.1, SVG Export Plug-In . SVG Version: 6.00 Build 0)  -->
<svg version="1.1" id="Layer_1" xmlns="http://www.w3.org/2000/svg" xmlns:xlink="http://www.w3.org/1999/xlink" x="0px" y="0px"
	 viewBox="0 0 100 100" style="enable-background:new 0 0 100 100;" xml:space="preserve">
<style type="text/css">
	.st0{fill:none;}
</style>
<g>
	<polygon points="5.9,94.8 6.1,5.2 94.2,50.1 	"/>
	<g>
		<polygon class="st0" points="5.9,94.8 6.1,5.2 94.2,50.1 		"/>
		<path d="M11.8,94.8c0.1-29.9,0.1-59.8,0.2-89.6C9,6.6,6,8.1,3.1,9.6c29.4,15,58.7,30,88.1,45c0-3,0-6,0-8.9
			C61.8,60.5,32.3,75.4,2.9,90.3c-6.6,3.3-0.7,12.3,5.9,8.9c29.4-14.9,58.9-29.8,88.3-44.7c3.8-1.9,3.8-7,0-8.9
			c-29.4-15-58.7-30-88.1-45c-3.9-2-8.8,0.5-8.8,4.5C0.1,35,0.1,64.9,0,94.8C0,101.5,11.7,101.5,11.8,94.8z"/>
	</g>
</g>
</svg>
