<?xml version="1.0" encoding="utf-8"?>
<!-- Generator: Adobe Illustrator 12.0.0, SVG Export Plug-In . SVG Version: 6.00 Build 51448)  -->
<!DOCTYPE svg PUBLIC "-//W3C//DTD SVG 1.1//EN" "http://www.w3.org/Graphics/SVG/1.1/DTD/svg11.dtd" [
	<!ENTITY ns_svg "http://www.w3.org/2000/svg">
	<!ENTITY ns_xlink "http://www.w3.org/1999/xlink">
]>
<svg  version="1.1" id="Layer_1" xmlns="&ns_svg;" xmlns:xlink="&ns_xlink;" width="71.103" height="67.721"
	 viewBox="0 0 71.103 67.721" overflow="visible" enable-background="new 0 0 71.103 67.721" xml:space="preserve">
<path d="M71.103,55.721c0,6.627-5.373,12-12,12H12c-6.628,0-12-5.373-12-12V12C0,5.373,5.372,0,12,0h47.103c6.627,0,12,5.373,12,12
	V55.721z"/>
<path fill="#FFFFFF" d="M51.509,10.887c0,4.587-4.742,8.306-10.592,8.306H14.23c-5.85,0-10.593-3.718-10.593-8.306l0,0
	c0-4.587,4.743-8.305,10.593-8.305h26.687C46.767,2.582,51.509,6.3,51.509,10.887L51.509,10.887z"/>
<circle fill="#FFFFFF" cx="35.551" cy="39.75" r="13.958"/>
<path fill="#070808" d="M48.039,10.887c0,3.463-2.808,6.271-6.271,6.271h-2.181c-3.463,0-6.271-2.807-6.271-6.271l0,0
	c0-3.463,2.808-6.27,6.271-6.27h2.181C45.231,4.617,48.039,7.424,48.039,10.887L48.039,10.887z"/>
</svg>
