<?xml version="1.0" encoding="UTF-8"?>
<svg width="100px" height="81px" viewBox="0 0 100 81" version="1.1" xmlns="http://www.w3.org/2000/svg" xmlns:xlink="http://www.w3.org/1999/xlink">
    <!-- Generator: Sketch 47.1 (45422) - http://www.bohemiancoding.com/sketch -->
    <title>Twitter_Bird</title>
    <desc>Created with Sketch.</desc>
    <defs></defs>
    <g id="Page-1" stroke="none" stroke-width="1" fill="none" fill-rule="evenodd">
        <g id="Landing-HD" transform="translate(-1147.000000, -472.000000)" fill-rule="nonzero" fill="#090F1B">
            <g id="Icons" transform="translate(1147.000000, 292.000000)">
                <g id="Twitter_Bird" transform="translate(0.000000, 180.000000)">
                    <path d="M100,9.58833482 C96.321,11.2149629 92.3665,12.3138339 88.217,12.8082013 C92.4525,10.2775587 95.706,6.27029255 97.2375,1.4950626 C93.273,3.83882241 88.8825,5.54020365 84.209,6.45717538 C80.467,2.48280063 75.135,0 69.234,0 C57.904,0 48.7175,9.15526502 48.7175,20.4479712 C48.7175,22.0506783 48.899,23.6115237 49.2485,25.1080813 C32.1975,24.2553973 17.0805,16.1142831 6.9615,3.74264005 C5.1955,6.7626665 4.1835,10.2750669 4.1835,14.0226905 C4.1835,21.1172609 7.8055,27.3760913 13.3105,31.0429815 C9.9475,30.9368321 6.784,30.0168702 4.018,28.4854278 C4.016,28.5706463 4.016,28.6563632 4.016,28.7425785 C4.016,38.64986 11.088,46.9145661 20.4735,48.7933614 C18.752,49.2608177 16.9395,49.5104931 15.0685,49.5104931 C13.7465,49.5104931 12.4615,49.3819177 11.2085,49.1437044 C13.8195,57.2673763 21.396,63.1798505 30.374,63.3443074 C23.3525,68.8291937 14.5065,72.0978989 4.894,72.0978989 C3.238,72.0978989 1.605,72.0012182 0,71.8118436 C9.0795,77.6141816 19.8635,81 31.4495,81 C69.186,81 89.8225,49.840902 89.8225,22.8186421 C89.8225,21.93207 89.8025,21.0504814 89.763,20.1728797 C93.7715,17.290399 97.2495,13.6887932 100,9.58833482 Z" id="Shape"></path>
                </g>
            </g>
        </g>
    </g>
</svg>