<?xml version="1.0" encoding="utf-8"?>
<!-- Generator: Adobe Illustrator 22.0.1, SVG Export Plug-In . SVG Version: 6.00 Build 0)  -->
<svg version="1.1" id="Layer_1" xmlns="http://www.w3.org/2000/svg" xmlns:xlink="http://www.w3.org/1999/xlink" x="0px" y="0px"
	 viewBox="0 0 100 89.3" style="enable-background:new 0 0 100 89.3;" xml:space="preserve">
<style type="text/css">
	.st0{fill:#FFFFFF;}
</style>
<g id="Layer_2_1_">
</g>
<g id="Layer_1_1_">
	<title>Twitter_Bird</title>
	<desc>Created with Sketch.</desc>
</g>
<g>
	<path class="st0" d="M0,89.3h31.4C19.9,89.3,9.1,85.5,0,79.2V89.3z"/>
	<path class="st0" d="M30.4,69.8c-9-0.2-16.6-6.7-19.2-15.7c1.3,0.3,2.6,0.4,3.9,0.4c1.9,0,3.7-0.2,5.4-0.8C11.1,51.7,4,42.6,4,31.6
		c0-0.1,0-0.2,0-0.3c2.8,1.8,5.9,2.8,9.3,2.9c-5.5-4-9.1-10.9-9.1-18.7c0-4.2,1-8,2.8-11.4c10.1,13.7,25.2,22.7,42.2,23.6
		c-0.3-1.7-0.5-3.4-0.5-5.2C48.7,10.1,57.9,0,69.2,0H0v79.2c1.6,0.2,3.2,0.3,4.9,0.3C14.5,79.5,23.4,75.8,30.4,69.8z"/>
	<path class="st0" d="M69.2,0c5.9,0,11.3,2.8,15,7.2c4.6-1.1,9-3,13-5.5c-1.5,5.3-4.8,9.7-9,12.5c4.2-0.6,8.1-1.8,11.8-3.5V0H69.2z"
		/>
	<path class="st0" d="M89.7,22.3c0.1,0.9,0.1,1.9,0.1,2.9c0,29.8-20.7,64.2-58.4,64.2H100V10.6C97.2,15.1,93.8,19.1,89.7,22.3z"/>
</g>
</svg>
