<?xml version="1.0" encoding="utf-8"?>
<!-- Generator: Adobe Illustrator 22.0.1, SVG Export Plug-In . SVG Version: 6.00 Build 0)  -->
<svg version="1.1" id="Layer_1" xmlns="http://www.w3.org/2000/svg" xmlns:xlink="http://www.w3.org/1999/xlink" x="0px" y="0px"
	 viewBox="0 0 100 100" style="enable-background:new 0 0 100 100;" xml:space="preserve">
<style type="text/css">
	.st0{fill:#333333;}
	.st1{fill:#EFEFEF;}
</style>
<g id="Layer_2_1_">
</g>
<g id="Layer_1_1_">
	<title>Twitter_Bird</title>
	<desc>Created with Sketch.</desc>
</g>
<rect class="st0" width="99.9" height="100"/>
<path class="st1" d="M35,100c35.5-2.2,54.9-39.4,54.9-71.7c0-1.1,0-2.2-0.1-3.2c4.1-3.6,7.4-7.9,10.2-13c-3.7,1.9-7.6,3.2-11.7,3.9
	c4.2-3.1,7.5-8.1,9-14c-4,2.8-8.4,4.9-13,6.2c-3.8-4.9-9.2-8.1-15.1-8.1c-11.3,0-20.5,11.3-20.5,25.2c0,2,0.2,3.9,0.5,5.8
	c-17-1-32.1-11.1-42.2-26.4c-1.8,3.8-2.8,8.1-2.8,12.8c0,8.7,3.6,16.4,9.1,20.9C10,38.3,6.9,37.1,4,35.1c0,0.1,0,0.2,0,0.3
	c0,12.3,7.1,22.5,16.5,24.7c-1.7,0.7-3.5,0.9-5.4,0.9c-1.3,0-2.6-0.1-3.9-0.4C13.8,70.7,21.4,78,30.4,78.2C23.4,84.9,14.5,89,4.9,89
	c-1.7,0-3.3-0.1-4.9-0.3c9.2,7,20,11.3,31.5,11.3H35z"/>
</svg>
