<?xml version="1.0" encoding="utf-8"?>
<!-- Generator: Adobe Illustrator 22.0.1, SVG Export Plug-In . SVG Version: 6.00 Build 0)  -->
<svg version="1.1" id="Layer_1" xmlns="http://www.w3.org/2000/svg" xmlns:xlink="http://www.w3.org/1999/xlink" x="0px" y="0px"
	 viewBox="0 0 48 59.7" style="enable-background:new 0 0 48 59.7;" xml:space="preserve">
<style type="text/css">
	.st0{fill:none;stroke:#020202;}
	.st1{fill:#FFFFFF;stroke:#000000;}
	.st2{stroke:#020202;}
</style>
<g>
	<path d="M16.2,36c0,4.5-3.6,8.1-8.1,8.1l0,0C3.6,44.1,0,40.5,0,36V23.8c0-4.5,3.6-8.1,8.1-8.1l0,0c4.5,0,8.1,3.6,8.1,8.1V36z"/>
	<line class="st0" x1="3.6" y1="17.7" x2="19.5" y2="3.4"/>
	<line class="st0" x1="1.8" y1="39.8" x2="19.4" y2="52.1"/>
	<circle class="st1" cx="39.8" cy="29.9" r="7.7"/>
	<polygon class="st2" points="20.7,54.7 4.6,43 3.9,18.9 5,16.9 14.7,8.1 	"/>
	<path d="M43,47.7c0,6.6-4.6,12-10.3,12h-9.1c-5.7,0-10.3-5.4-10.3-12V12c0-6.6,4.6-12,10.3-12h9.1C38.4,0,43,5.4,43,12V47.7
		L43,47.7z"/>
</g>
</svg>
