<?xml version="1.0" encoding="utf-8"?>
<!-- Generator: Adobe Illustrator 12.0.0, SVG Export Plug-In . SVG Version: 6.00 Build 51448)  -->
<!DOCTYPE svg PUBLIC "-//W3C//DTD SVG 1.1//EN" "http://www.w3.org/Graphics/SVG/1.1/DTD/svg11.dtd" [
	<!ENTITY ns_svg "http://www.w3.org/2000/svg">
	<!ENTITY ns_xlink "http://www.w3.org/1999/xlink">
]>
<svg  version="1.1" id="Layer_1" xmlns="&ns_svg;" xmlns:xlink="&ns_xlink;" width="72.258" height="60.345"
	 viewBox="0 0 72.258 60.345" overflow="visible" enable-background="new 0 0 72.258 60.345" xml:space="preserve">
<path d="M16.274,36.624c0,4.494-3.643,8.137-8.137,8.137l0,0C3.643,44.761,0,41.118,0,36.624V24.417
	c0-4.494,3.643-8.137,8.137-8.137l0,0c4.494,0,8.137,3.643,8.137,8.137V36.624z"/>
<line stroke="#020202" x1="3.736" y1="18.333" x2="19.628" y2="3.963"/>
<line stroke="#020202" x1="1.905" y1="40.412" x2="19.459" y2="52.697"/>
<circle fill="#FFFFFF" stroke="#000000" cx="39.919" cy="30.473" r="7.655"/>
<polygon stroke="#020202" points="20.842,55.343 4.675,43.565 4.032,19.475 5.103,17.548 14.846,8.662 "/>
<path d="M55.663,50.251c0,0.557-0.45,1.006-1.005,1.006l0,0c-0.556,0-1.006-0.449-1.006-1.006V9.329c0-0.556,0.45-1.005,1.006-1.005
	l0,0c0.555,0,1.005,0.449,1.005,1.005V50.251z"/>
<path d="M63.96,54.765c0,0.68-0.45,1.228-1.005,1.228l0,0c-0.556,0-1.006-0.548-1.006-1.228V4.815c0-0.678,0.45-1.227,1.006-1.227
	l0,0c0.555,0,1.005,0.549,1.005,1.227V54.765z"/>
<path d="M72.258,58.186c0,0.772-0.45,1.396-1.005,1.396l0,0c-0.556,0-1.006-0.623-1.006-1.396V1.395c0-0.771,0.45-1.395,1.006-1.395
	l0,0c0.555,0,1.005,0.624,1.005,1.395V58.186z"/>
<path d="M43.148,48.345c0,6.627-4.594,12-10.26,12H23.75c-5.666,0-10.259-5.373-10.259-12V12.601c0-6.627,4.593-12,10.259-12h9.139
	c5.666,0,10.26,5.373,10.26,12V48.345z"/>
</svg>
